# xmcd
#
# Track frame offsets: 
#        150
#        15327
#        33023
#        46470
#        64803
#        81766
#        98554
#        114673
#        131899
#        146512
#        163512
#        176864
#        193846
#        213346
#        235787
#
# Disc length: 3344 seconds
#
# Revision: 0
# Processed by: cddbd v1.5.2PL0 Copyright (c) Steve Scherf et al.
# Submitted via: ExactAudioCopyFreeDBPlugin 1.0
#
DISCID=c90d0e0f
DTITLE=Ariana Grande - Dangerous Woman  
DYEAR=2016
DGENRE=R&B - Pop
TTITLE0=Moonlight
TTITLE1=Dangerous Woman
TTITLE2=Be Alright
TTITLE3=Into You
TTITLE4=Ariana Grande (feat. Nicki Minaj) - Side To Side
TTITLE5=Ariana Grande (feat. Lil Wayne - Let Me Love You
TTITLE6=Greedy
TTITLE7=Ariana Grande (feat. Macy Gray) - Leave Me Lonely
TTITLE8=Ariana Grande (feat. Future) - Everyday
TTITLE9=Sometimes
TTITLE10=I Don't Care
TTITLE11=Bad Decisions
TTITLE12=Touch It
TTITLE13=Knew Better - Forever Boy
TTITLE14=Thinking Bout You
EXTD=Barcode: 0602547871138\nRelease year: 2016\nRelease country: AU\n
EXTD=Release label: Republic\nRelease catalog#: 4784113
EXTT0=
EXTT1=
EXTT2=
EXTT3=
EXTT4=
EXTT5=
EXTT6=
EXTT7=
EXTT8=
EXTT9=
EXTT10=
EXTT11=
EXTT12=
EXTT13=
EXTT14=
PLAYORDER=
